<svg width="101" height="100" viewBox="0 0 101 100" fill="none" xmlns="http://www.w3.org/2000/svg">
<g opacity="0.1">
<circle cx="50.5" cy="50" r="50" fill="#19AFC4"/>
<circle cx="50.5" cy="50" r="50" stroke="#2F70FE"/>
</g>
<path d="M53.25 42C55.4591 42 57.25 40.2091 57.25 38C57.25 35.7909 55.4591 34 53.25 34C51.0409 34 49.25 35.7909 49.25 38C49.25 40.2091 51.0409 42 53.25 42Z" fill="black"/>
<path d="M57.34 58.23C57.2295 58.1557 57.1052 58.1042 56.9746 58.0785C56.8439 58.0528 56.7094 58.0535 56.579 58.0805C56.4486 58.1075 56.3249 58.1603 56.2151 58.2358C56.1054 58.3113 56.0119 58.4079 55.94 58.52C54.9733 59.9517 53.789 61.2236 52.43 62.29C52.1 62.54 50.87 63.49 50.35 63.29C49.99 63.18 50.2 62.47 50.27 62.17L50.8 60.6C51.02 59.96 54.85 48.6 55.27 47.3C55.89 45.4 55.62 43.53 52.79 43.98C52.02 44.06 44.21 45.07 44.07 45.08C43.9387 45.0885 43.8103 45.1229 43.6922 45.181C43.5742 45.2391 43.4687 45.32 43.3819 45.4189C43.2951 45.5178 43.2286 45.6328 43.1862 45.7574C43.1439 45.882 43.1264 46.0137 43.135 46.145C43.1435 46.2763 43.1778 46.4047 43.236 46.5227C43.2941 46.6408 43.3749 46.7463 43.4738 46.8331C43.5727 46.9199 43.6878 46.9864 43.8124 47.0288C43.9369 47.0711 44.0687 47.0885 44.2 47.08C44.2 47.08 47.2 46.69 47.53 46.66C47.699 46.6435 47.8692 46.6763 48.02 46.7543C48.1709 46.8324 48.2959 46.9525 48.38 47.1C48.5612 47.6601 48.5364 48.2666 48.31 48.81C48.05 49.81 43.94 61.39 43.81 62.06C43.6706 62.6207 43.7093 63.2109 43.9207 63.7485C44.1322 64.2862 44.5059 64.7446 44.99 65.06C45.8985 65.6655 46.9802 65.957 48.07 65.89C49.1296 65.8771 50.1774 65.6668 51.16 65.27C53.65 64.27 56.25 61.61 57.62 59.52C57.738 59.3077 57.7746 59.0596 57.7231 58.8222C57.6715 58.5849 57.5354 58.3743 57.34 58.23Z" fill="black"/>
</svg>
