<svg width="101" height="100" viewBox="0 0 101 100" fill="none" xmlns="http://www.w3.org/2000/svg">
<g opacity="0.1">
<circle cx="50.5" cy="50" r="50" fill="#19AFC3"/>
<circle cx="50.5" cy="50" r="50" stroke="#2F70FE"/>
</g>
<g clip-path="url(#clip0_0_721)">
<path d="M62.79 65.1478V54.3388H66.39V68.7501H33.8573V54.3388H37.4527V65.1478H62.79ZM41.0595 61.55H59.1832V57.941H41.0595V61.55ZM41.4982 53.3601L59.181 57.0523L59.946 53.5603L42.2587 49.8658L41.4982 53.3601ZM43.7887 44.8236L60.171 52.4691L61.6965 49.1773L45.3142 41.5296L43.7887 44.8011V44.8236ZM48.372 36.7483L62.2455 48.3178L64.536 45.5818L50.6715 34.0168L48.3855 36.7461L48.372 36.7483ZM57.3315 28.2478L54.3817 30.4281L65.1885 44.9496L68.1427 42.7648L57.327 28.2478H57.3315Z" fill="black"/>
</g>
<defs>
<clipPath id="clip0_0_721">
<rect width="48" height="48" fill="white" transform="translate(26.5 26)"/>
</clipPath>
</defs>
</svg>
